<?xml version="1.0" encoding="iso-8859-1"?>
<!-- Generator: Adobe Illustrator 19.0.0, SVG Export Plug-In . SVG Version: 6.00 Build 0)  -->
<svg version="1.1" id="Layer_1" xmlns="http://www.w3.org/2000/svg" xmlns:xlink="http://www.w3.org/1999/xlink" x="0px" y="0px"
	 viewBox="0 0 509.287 509.287" style="enable-background:new 0 0 509.287 509.287;" xml:space="preserve">
<circle style="fill:#FF553E;" cx="254.644" cy="254.644" r="254.644"/>
<path style="fill:#6EB1E1;" d="M451.984,68.832H57.303c-9.833,0-17.632,7.799-17.632,17.632v254.644
	c0,9.833,7.799,17.632,17.632,17.632h395.02c9.833,0,17.632-7.799,17.632-17.632V86.124
	C469.616,76.63,461.817,68.832,451.984,68.832z"/>
<rect x="39.672" y="104.773" style="fill:#4F5565;" width="429.944" height="75.613"/>
<g>
	<rect x="89.176" y="282.109" style="fill:#4E98C6;" width="170.893" height="22.379"/>
	<rect x="89.176" y="223.449" style="fill:#4E98C6;" width="170.893" height="22.379"/>
</g>
<path style="fill:#F1F3F7;" d="M327.205,324.832v-27.804c0-22.379,18.31-40.689,40.689-40.689c22.379,0,40.689,18.31,40.689,40.689
	v27.804h19.666v-27.804c0-33.229-27.126-60.355-60.355-60.355s-60.355,27.126-60.355,60.355v27.804H327.205z"/>
<rect x="290.585" y="320.424" style="fill:#FBD303;" width="154.956" height="120.371"/>
<path style="fill:#4F5565;" d="M382.135,385.865c0-7.799-6.442-14.241-14.241-14.241c-7.799,0-14.241,6.442-14.241,14.241
	c0,6.103,3.73,11.189,9.155,13.224v16.954c0,2.713,2.374,5.086,5.086,5.086s5.086-2.374,5.086-5.086v-16.954
	C378.405,397.054,382.135,391.968,382.135,385.865z"/>
<g>
</g>
<g>
</g>
<g>
</g>
<g>
</g>
<g>
</g>
<g>
</g>
<g>
</g>
<g>
</g>
<g>
</g>
<g>
</g>
<g>
</g>
<g>
</g>
<g>
</g>
<g>
</g>
<g>
</g>
</svg>
